<?xml version="1.0" encoding="UTF-8"?>
<svg width="543px" height="175px" viewBox="0 0 543 175" version="1.1" xmlns="http://www.w3.org/2000/svg" xmlns:xlink="http://www.w3.org/1999/xlink">
    <!-- Generator: Sketch 48 (47235) - http://www.bohemiancoding.com/sketch -->
    <title>fig2</title>
    <desc>Created with Sketch.</desc>
    <defs></defs>
    <g id="Assets" stroke="none" stroke-width="1" fill="none" fill-rule="evenodd">
        <g id="fig2">
            <g transform="translate(4.000000, 5.000000)" id="Group-3">
                <g>
                    <g id="brand" transform="translate(223.000000, 0.000000)" stroke="#BF5959" stroke-width="8">
                        <circle id="Oval" cx="45" cy="45" r="41"></circle>
                    </g>
                    <g id="emp" transform="translate(0.000000, 29.000000)" fill="#505050" stroke="#BF5959">
                        <circle id="Oval-2" cx="10" cy="10" r="10"></circle>
                    </g>
                    <g id="emp" transform="translate(46.000000, 90.000000)" fill="#505050" stroke="#BF5959">
                        <circle id="Oval-2" cx="10" cy="10" r="10"></circle>
                    </g>
                    <g id="emp" transform="translate(135.000000, 126.000000)" fill="#505050" stroke="#BF5959">
                        <circle id="Oval-2" cx="10" cy="10" r="10"></circle>
                    </g>
                    <g id="emp" transform="translate(516.000000, 30.000000)" fill="#505050" stroke="#BF5959">
                        <circle id="Oval-2" cx="10" cy="10" r="10"></circle>
                    </g>
                    <g id="emp" transform="translate(471.000000, 90.000000)" fill="#505050" stroke="#BF5959">
                        <circle id="Oval-2" cx="10" cy="10" r="10"></circle>
                    </g>
                    <g id="emp" transform="translate(382.000000, 126.000000)" fill="#505050" stroke="#BF5959">
                        <circle id="Oval-2" cx="10" cy="10" r="10"></circle>
                    </g>
                    <g id="emp" transform="translate(259.000000, 146.000000)" fill="#505050" stroke="#BF5959">
                        <circle id="Oval-2" cx="10" cy="10" r="10"></circle>
                    </g>
                    <path d="M20.5,39.5 L224.509804,39.5" id="Line-2" stroke="#BF5959" stroke-linecap="square"></path>
                    <path d="M198.5,39.5 L340.509804,39.5" id="Line-2" stroke="#BF5959" stroke-linecap="square"></path>
                    <path d="M199.5,76.5 L337.5,76.5" id="Line-2" stroke="#BF5959" stroke-linecap="square" transform="translate(268.500000, 76.500000) rotate(90.000000) translate(-268.500000, -76.500000) "></path>
                    <path d="M66.5,97.5 L268.5,39.5" id="Line-2" stroke="#BF5959" stroke-linecap="square"></path>
                    <path d="M153.5,129.5 L268.5,39.5" id="Line-2" stroke="#BF5959" stroke-linecap="square"></path>
                    <path d="M268.5,129.5 L383.5,39.5" id="Line-2" stroke="#BF5959" stroke-linecap="square" transform="translate(326.000000, 84.500000) scale(-1, 1) translate(-326.000000, -84.500000) "></path>
                    <path d="M268.5,97.5 L470.5,39.5" id="Line-2" stroke="#BF5959" stroke-linecap="square" transform="translate(369.500000, 68.500000) scale(-1, 1) translate(-369.500000, -68.500000) "></path>
                    <path d="M311.5,39.5 L515.509804,39.5" id="Line-2" stroke="#BF5959" stroke-linecap="square"></path>
                    <circle id="Oval" fill="#FFFFFF" cx="268" cy="45" r="37"></circle>
                    <rect id="Rectangle-5" fill="#FFFFFF" x="223" y="93" width="92" height="26"></rect>
                    <text id="Happy-Co" font-family="CircularStd-BoldItalic, Circular Std" font-size="20" font-style="italic" font-weight="bold" letter-spacing="0.172222197" fill="#505050">
                        <tspan x="225" y="110">Happy Co</tspan>
                    </text>
                </g>
            </g>
        </g>
    </g>
</svg>