<?xml version="1.0" encoding="UTF-8"?>
<svg width="797px" height="390px" viewBox="0 0 797 390" version="1.1" xmlns="http://www.w3.org/2000/svg" xmlns:xlink="http://www.w3.org/1999/xlink">
    <!-- Generator: Sketch 48 (47235) - http://www.bohemiancoding.com/sketch -->
    <title>fig 3</title>
    <desc>Created with Sketch.</desc>
    <defs></defs>
    <g id="Assets" stroke="none" stroke-width="1" fill="none" fill-rule="evenodd">
        <g id="fig-3">
            <g id="fig3" transform="translate(2.000000, 3.000000)">
                <g id="Cross-lines" opacity="0.17578125" transform="translate(34.000000, 8.000000)" stroke="#BF5959" stroke-linecap="square">
                    <path d="M661.5,90.5 L59.5,0.5" id="Line-3"></path>
                    <path d="M662.5,90.5 L0.5,27.5" id="Line-3"></path>
                    <path d="M238.5,344.5 L62.5,88.5" id="Line-3"></path>
                    <path d="M150.5,309.5 L62.5,88.5" id="Line-3"></path>
                    <path d="M106.5,249.5 L62.5,88.5" id="Line-3"></path>
                    <path d="M2.5,150.5 L361.5,259.5" id="Line-3"></path>
                    <path d="M61.5,173.5 L361.5,259.5" id="Line-3"></path>
                    <path d="M664.5,172.5 L363.5,258.5" id="Line-3"></path>
                    <path d="M664.5,88.5 L576.5,308.5" id="Line-3"></path>
                    <path d="M664.5,88.5 L622.5,247.5" id="Line-3"></path>
                </g>
                <g id="Group-10" transform="translate(547.000000, 0.000000)">
                    <g id="brand" transform="translate(106.000000, 51.000000)" stroke="#BF5959" stroke-width="8">
                        <circle id="Oval" cx="45" cy="45" r="41"></circle>
                    </g>
                    <g id="emp" transform="translate(142.000000, 0.000000)" fill="#505050" stroke="#BF5959">
                        <circle id="Oval-2" cx="10" cy="10" r="10"></circle>
                    </g>
                    <g id="emp" transform="translate(142.000000, 171.000000)" fill="#505050" stroke="#BF5959">
                        <circle id="Oval-2" cx="10" cy="10" r="10"></circle>
                    </g>
                    <g id="emp" transform="translate(203.000000, 146.000000)" fill="#505050" stroke="#BF5959">
                        <circle id="Oval-2" cx="10" cy="10" r="10"></circle>
                    </g>
                    <g id="emp" transform="translate(227.000000, 85.000000)" fill="#505050" stroke="#BF5959">
                        <circle id="Oval-2" cx="10" cy="10" r="10"></circle>
                    </g>
                    <g id="emp" transform="translate(204.000000, 26.000000)" fill="#505050" stroke="#BF5959">
                        <circle id="Oval-2" cx="10" cy="10" r="10"></circle>
                    </g>
                    <path d="M151.5,20.5 L151.5,95.5" id="Line-4" stroke="#BF5959" stroke-linecap="square"></path>
                    <path d="M205.033009,42 L152,95.0330086" id="Line-4" stroke="#BF5959" stroke-linecap="square"></path>
                    <path d="M205.033009,96 L152,149.033009" id="Line-4" stroke="#BF5959" stroke-linecap="square" transform="translate(178.516504, 122.516504) scale(1, -1) translate(-178.516504, -122.516504) "></path>
                    <path d="M151.5,95.5 L151.5,170.5" id="Line-4" stroke="#BF5959" stroke-linecap="square"></path>
                    <path d="M189,58 L189,133" id="Line-4" stroke="#BF5959" stroke-linecap="square" transform="translate(189.000000, 95.500000) rotate(90.000000) translate(-189.000000, -95.500000) "></path>
                    <circle id="Oval-4" fill="#FFFFFF" cx="151" cy="96" r="37"></circle>
                    <rect id="Rectangle-4" fill="#FFFFFF" x="0" y="84" width="95" height="22"></rect>
                    <text id="Smirk-Co" font-family="CircularStd-BoldItalic, Circular Std" font-size="20" font-style="italic" font-weight="bold" letter-spacing="0.172222197" fill="#505050">
                        <tspan x="6" y="102">Smirk Co</tspan>
                    </text>
                </g>
                <g id="Group-10" transform="translate(118.500000, 95.500000) scale(-1, 1) translate(-118.500000, -95.500000) ">
                    <g id="brand" transform="translate(96.000000, 51.000000)" stroke="#BF5959" stroke-width="8">
                        <circle id="Oval" cx="45" cy="45" r="41"></circle>
                    </g>
                    <g id="emp" transform="translate(132.000000, 0.000000)" fill="#505050" stroke="#BF5959">
                        <circle id="Oval-2" cx="10" cy="10" r="10"></circle>
                    </g>
                    <g id="emp" transform="translate(132.000000, 171.000000)" fill="#505050" stroke="#BF5959">
                        <circle id="Oval-2" cx="10" cy="10" r="10"></circle>
                    </g>
                    <g id="emp" transform="translate(193.000000, 146.000000)" fill="#505050" stroke="#BF5959">
                        <circle id="Oval-2" cx="10" cy="10" r="10"></circle>
                    </g>
                    <g id="emp" transform="translate(217.000000, 85.000000)" fill="#505050" stroke="#BF5959">
                        <circle id="Oval-2" cx="10" cy="10" r="10"></circle>
                    </g>
                    <g id="emp" transform="translate(194.000000, 26.000000)" fill="#505050" stroke="#BF5959">
                        <circle id="Oval-2" cx="10" cy="10" r="10"></circle>
                    </g>
                    <path d="M141.5,20.5 L141.5,95.5" id="Line-4" stroke="#BF5959" stroke-linecap="square"></path>
                    <path d="M195.033009,42 L142,95.0330086" id="Line-4" stroke="#BF5959" stroke-linecap="square"></path>
                    <path d="M195.033009,96 L142,149.033009" id="Line-4" stroke="#BF5959" stroke-linecap="square" transform="translate(168.516504, 122.516504) scale(1, -1) translate(-168.516504, -122.516504) "></path>
                    <path d="M141.5,95.5 L141.5,170.5" id="Line-4" stroke="#BF5959" stroke-linecap="square"></path>
                    <path d="M179,58 L179,133" id="Line-4" stroke="#BF5959" stroke-linecap="square" transform="translate(179.000000, 95.500000) rotate(90.000000) translate(-179.000000, -95.500000) "></path>
                    <circle id="Oval-4" fill="#FFFFFF" cx="141" cy="96" r="37"></circle>
                    <text id="Smile-Co" transform="translate(41.500000, 94.500000) scale(-1, 1) translate(-41.500000, -94.500000) " font-family="CircularStd-BoldItalic, Circular Std" font-size="20" font-style="italic" font-weight="bold" letter-spacing="0.172222197" fill="#505050">
                        <tspan x="0" y="102">Smile Co</tspan>
                    </text>
                </g>
                <g id="Group-3" transform="translate(129.000000, 219.000000)">
                    <g id="brand" transform="translate(223.000000, 0.000000)" stroke="#BF5959" stroke-width="8">
                        <circle id="Oval" cx="45" cy="45" r="41"></circle>
                    </g>
                    <g id="emp" transform="translate(0.000000, 29.000000)" fill="#505050" stroke="#BF5959">
                        <circle id="Oval-2" cx="10" cy="10" r="10"></circle>
                    </g>
                    <g id="emp" transform="translate(46.000000, 90.000000)" fill="#505050" stroke="#BF5959">
                        <circle id="Oval-2" cx="10" cy="10" r="10"></circle>
                    </g>
                    <g id="emp" transform="translate(135.000000, 126.000000)" fill="#505050" stroke="#BF5959">
                        <circle id="Oval-2" cx="10" cy="10" r="10"></circle>
                    </g>
                    <g id="emp" transform="translate(516.000000, 30.000000)" fill="#505050" stroke="#BF5959">
                        <circle id="Oval-2" cx="10" cy="10" r="10"></circle>
                    </g>
                    <g id="emp" transform="translate(471.000000, 90.000000)" fill="#505050" stroke="#BF5959">
                        <circle id="Oval-2" cx="10" cy="10" r="10"></circle>
                    </g>
                    <g id="emp" transform="translate(382.000000, 126.000000)" fill="#505050" stroke="#BF5959">
                        <circle id="Oval-2" cx="10" cy="10" r="10"></circle>
                    </g>
                    <g id="emp" transform="translate(259.000000, 146.000000)" fill="#505050" stroke="#BF5959">
                        <circle id="Oval-2" cx="10" cy="10" r="10"></circle>
                    </g>
                    <path d="M20.5,39.5 L224.509804,39.5" id="Line-2" stroke="#BF5959" stroke-linecap="square"></path>
                    <path d="M198.5,39.5 L340.509804,39.5" id="Line-2" stroke="#BF5959" stroke-linecap="square"></path>
                    <path d="M199.5,76.5 L337.5,76.5" id="Line-2" stroke="#BF5959" stroke-linecap="square" transform="translate(268.500000, 76.500000) rotate(90.000000) translate(-268.500000, -76.500000) "></path>
                    <path d="M66.5,97.5 L268.5,39.5" id="Line-2" stroke="#BF5959" stroke-linecap="square"></path>
                    <path d="M153.5,129.5 L268.5,39.5" id="Line-2" stroke="#BF5959" stroke-linecap="square"></path>
                    <path d="M268.5,129.5 L383.5,39.5" id="Line-2" stroke="#BF5959" stroke-linecap="square" transform="translate(326.000000, 84.500000) scale(-1, 1) translate(-326.000000, -84.500000) "></path>
                    <path d="M268.5,97.5 L470.5,39.5" id="Line-2" stroke="#BF5959" stroke-linecap="square" transform="translate(369.500000, 68.500000) scale(-1, 1) translate(-369.500000, -68.500000) "></path>
                    <path d="M311.5,39.5 L515.509804,39.5" id="Line-2" stroke="#BF5959" stroke-linecap="square"></path>
                    <circle id="Oval" fill="#FFFFFF" cx="268" cy="45" r="37"></circle>
                    <rect id="Rectangle-5" fill="#FFFFFF" x="223" y="93" width="92" height="26"></rect>
                    <text id="Happy-Co" font-family="CircularStd-BoldItalic, Circular Std" font-size="20" font-style="italic" font-weight="bold" letter-spacing="0.172222197" fill="#505050">
                        <tspan x="225" y="110">Happy Co</tspan>
                    </text>
                </g>
            </g>
        </g>
    </g>
</svg>